<mxfile host="app.diagrams.net" modified="2021-09-02T17:43:25.507Z" agent="5.0 (Windows NT 10.0; Win64; x64) AppleWebKit/537.36 (KHTML, like Gecko) Chrome/86.0.4240.183 Safari/537.36" etag="QLAa4LJ21Eg5raZS5gQs" version="15.0.6" type="github">
  <diagram id="_brrXb3UpVeoT-GA5K8P" name="Page-1">
    <mxGraphModel dx="2249" dy="1963" grid="1" gridSize="10" guides="1" tooltips="1" connect="1" arrows="1" fold="1" page="1" pageScale="1" pageWidth="827" pageHeight="1169" math="0" shadow="0">
      <root>
        <mxCell id="0" />
        <mxCell id="1" parent="0" />
        <mxCell id="eyUBqQHgR1UuD9WIrV36-1" value="C_Pan" style="swimlane;fontStyle=1;align=center;verticalAlign=top;childLayout=stackLayout;horizontal=1;startSize=26;horizontalStack=0;resizeParent=1;resizeParentMax=0;resizeLast=0;collapsible=1;marginBottom=0;fillColor=#1ba1e2;strokeColor=#006EAF;fontColor=#ffffff;" vertex="1" parent="1">
          <mxGeometry x="120" y="80" width="160" height="86" as="geometry" />
        </mxCell>
        <mxCell id="eyUBqQHgR1UuD9WIrV36-3" value="" style="line;strokeWidth=1;fillColor=none;align=left;verticalAlign=middle;spacingTop=-1;spacingLeft=3;spacingRight=3;rotatable=0;labelPosition=right;points=[];portConstraint=eastwest;" vertex="1" parent="eyUBqQHgR1UuD9WIrV36-1">
          <mxGeometry y="26" width="160" height="8" as="geometry" />
        </mxCell>
        <mxCell id="eyUBqQHgR1UuD9WIrV36-4" value="+ cook(C_Product)" style="text;strokeColor=#6c8ebf;fillColor=#dae8fc;align=left;verticalAlign=top;spacingLeft=4;spacingRight=4;overflow=hidden;rotatable=0;points=[[0,0.5],[1,0.5]];portConstraint=eastwest;" vertex="1" parent="eyUBqQHgR1UuD9WIrV36-1">
          <mxGeometry y="34" width="160" height="26" as="geometry" />
        </mxCell>
        <mxCell id="eyUBqQHgR1UuD9WIrV36-10" value="+ heat():void" style="text;strokeColor=#6c8ebf;fillColor=#dae8fc;align=left;verticalAlign=top;spacingLeft=4;spacingRight=4;overflow=hidden;rotatable=0;points=[[0,0.5],[1,0.5]];portConstraint=eastwest;" vertex="1" parent="eyUBqQHgR1UuD9WIrV36-1">
          <mxGeometry y="60" width="160" height="26" as="geometry" />
        </mxCell>
        <mxCell id="eyUBqQHgR1UuD9WIrV36-27" value="" style="endArrow=none;html=1;edgeStyle=orthogonalEdgeStyle;" edge="1" parent="1">
          <mxGeometry relative="1" as="geometry">
            <mxPoint x="574" y="122.5" as="sourcePoint" />
            <mxPoint x="674" y="122.5" as="targetPoint" />
          </mxGeometry>
        </mxCell>
        <mxCell id="eyUBqQHgR1UuD9WIrV36-28" value="parent" style="edgeLabel;resizable=0;html=1;align=left;verticalAlign=bottom;" connectable="0" vertex="1" parent="eyUBqQHgR1UuD9WIrV36-27">
          <mxGeometry x="-1" relative="1" as="geometry" />
        </mxCell>
        <mxCell id="eyUBqQHgR1UuD9WIrV36-29" value="child" style="edgeLabel;resizable=0;html=1;align=right;verticalAlign=bottom;" connectable="0" vertex="1" parent="eyUBqQHgR1UuD9WIrV36-27">
          <mxGeometry x="1" relative="1" as="geometry" />
        </mxCell>
        <mxCell id="eyUBqQHgR1UuD9WIrV36-33" value="1" style="endArrow=open;html=1;endSize=12;startArrow=diamondThin;startSize=14;startFill=0;edgeStyle=orthogonalEdgeStyle;align=left;verticalAlign=bottom;" edge="1" parent="1">
          <mxGeometry x="-1" y="3" relative="1" as="geometry">
            <mxPoint x="-10" y="135.5" as="sourcePoint" />
            <mxPoint x="120" y="136" as="targetPoint" />
            <Array as="points">
              <mxPoint x="60" y="135.5" />
            </Array>
          </mxGeometry>
        </mxCell>
        <mxCell id="eyUBqQHgR1UuD9WIrV36-34" value="" style="endArrow=diamondThin;endFill=1;endSize=24;html=1;entryX=0.038;entryY=0.635;entryDx=0;entryDy=0;entryPerimeter=0;" edge="1" parent="1" target="eyUBqQHgR1UuD9WIrV36-26">
          <mxGeometry width="160" relative="1" as="geometry">
            <mxPoint x="280" y="122.5" as="sourcePoint" />
            <mxPoint x="400" y="122.5" as="targetPoint" />
          </mxGeometry>
        </mxCell>
        <mxCell id="eyUBqQHgR1UuD9WIrV36-16" value="C_Stove" style="swimlane;fontStyle=1;align=center;verticalAlign=top;childLayout=stackLayout;horizontal=1;startSize=26;horizontalStack=0;resizeParent=1;resizeParentMax=0;resizeLast=0;collapsible=1;marginBottom=0;fillColor=#1ba1e2;strokeColor=#006EAF;fontColor=#ffffff;" vertex="1" parent="1">
          <mxGeometry x="414" y="80" width="160" height="216" as="geometry" />
        </mxCell>
        <mxCell id="eyUBqQHgR1UuD9WIrV36-26" value="- _plate:vector(C_Plate)" style="text;strokeColor=#23445d;fillColor=#bac8d3;align=left;verticalAlign=top;spacingLeft=4;spacingRight=4;overflow=hidden;rotatable=0;points=[[0,0.5],[1,0.5]];portConstraint=eastwest;" vertex="1" parent="eyUBqQHgR1UuD9WIrV36-16">
          <mxGeometry y="26" width="160" height="26" as="geometry" />
        </mxCell>
        <mxCell id="eyUBqQHgR1UuD9WIrV36-37" value="- _temp:usigned short" style="text;strokeColor=#23445d;fillColor=#bac8d3;align=left;verticalAlign=top;spacingLeft=4;spacingRight=4;overflow=hidden;rotatable=0;points=[[0,0.5],[1,0.5]];portConstraint=eastwest;" vertex="1" parent="eyUBqQHgR1UuD9WIrV36-16">
          <mxGeometry y="52" width="160" height="26" as="geometry" />
        </mxCell>
        <mxCell id="eyUBqQHgR1UuD9WIrV36-18" value="" style="line;strokeWidth=1;fillColor=none;align=left;verticalAlign=middle;spacingTop=-1;spacingLeft=3;spacingRight=3;rotatable=0;labelPosition=right;points=[];portConstraint=eastwest;" vertex="1" parent="eyUBqQHgR1UuD9WIrV36-16">
          <mxGeometry y="78" width="160" height="8" as="geometry" />
        </mxCell>
        <mxCell id="eyUBqQHgR1UuD9WIrV36-19" value="+ on():string" style="text;strokeColor=#6c8ebf;fillColor=#dae8fc;align=left;verticalAlign=top;spacingLeft=4;spacingRight=4;overflow=hidden;rotatable=0;points=[[0,0.5],[1,0.5]];portConstraint=eastwest;" vertex="1" parent="eyUBqQHgR1UuD9WIrV36-16">
          <mxGeometry y="86" width="160" height="26" as="geometry" />
        </mxCell>
        <mxCell id="eyUBqQHgR1UuD9WIrV36-32" value="+ warm(C_Pan):void" style="text;strokeColor=#6c8ebf;fillColor=#dae8fc;align=left;verticalAlign=top;spacingLeft=4;spacingRight=4;overflow=hidden;rotatable=0;points=[[0,0.5],[1,0.5]];portConstraint=eastwest;" vertex="1" parent="eyUBqQHgR1UuD9WIrV36-16">
          <mxGeometry y="112" width="160" height="26" as="geometry" />
        </mxCell>
        <mxCell id="eyUBqQHgR1UuD9WIrV36-38" value="+ increaseTemp():void" style="text;strokeColor=#6c8ebf;fillColor=#dae8fc;align=left;verticalAlign=top;spacingLeft=4;spacingRight=4;overflow=hidden;rotatable=0;points=[[0,0.5],[1,0.5]];portConstraint=eastwest;" vertex="1" parent="eyUBqQHgR1UuD9WIrV36-16">
          <mxGeometry y="138" width="160" height="26" as="geometry" />
        </mxCell>
        <mxCell id="eyUBqQHgR1UuD9WIrV36-39" value="+ decreaseTemp():void" style="text;strokeColor=#6c8ebf;fillColor=#dae8fc;align=left;verticalAlign=top;spacingLeft=4;spacingRight=4;overflow=hidden;rotatable=0;points=[[0,0.5],[1,0.5]];portConstraint=eastwest;" vertex="1" parent="eyUBqQHgR1UuD9WIrV36-16">
          <mxGeometry y="164" width="160" height="26" as="geometry" />
        </mxCell>
        <mxCell id="eyUBqQHgR1UuD9WIrV36-20" value="+ off():string" style="text;strokeColor=#6c8ebf;fillColor=#dae8fc;align=left;verticalAlign=top;spacingLeft=4;spacingRight=4;overflow=hidden;rotatable=0;points=[[0,0.5],[1,0.5]];portConstraint=eastwest;" vertex="1" parent="eyUBqQHgR1UuD9WIrV36-16">
          <mxGeometry y="190" width="160" height="26" as="geometry" />
        </mxCell>
        <mxCell id="eyUBqQHgR1UuD9WIrV36-41" value="C_Product" style="swimlane;fontStyle=0;childLayout=stackLayout;horizontal=1;startSize=26;fillColor=#1ba1e2;horizontalStack=0;resizeParent=1;resizeParentMax=0;resizeLast=0;collapsible=1;marginBottom=0;strokeColor=#006EAF;fontColor=#ffffff;" vertex="1" parent="1">
          <mxGeometry x="-150" y="114" width="140" height="52" as="geometry" />
        </mxCell>
        <mxCell id="eyUBqQHgR1UuD9WIrV36-56" value="Extends" style="endArrow=block;endSize=16;endFill=0;html=1;entryX=0.619;entryY=0.962;entryDx=0;entryDy=0;entryPerimeter=0;" edge="1" parent="eyUBqQHgR1UuD9WIrV36-41" target="eyUBqQHgR1UuD9WIrV36-51">
          <mxGeometry x="-0.0088" y="-10" width="160" relative="1" as="geometry">
            <mxPoint x="69.5" as="sourcePoint" />
            <mxPoint x="69.57999999999993" y="112.98000000000002" as="targetPoint" />
            <mxPoint as="offset" />
          </mxGeometry>
        </mxCell>
        <mxCell id="eyUBqQHgR1UuD9WIrV36-42" value="- _weigt:unsigned short" style="text;strokeColor=#23445d;fillColor=#bac8d3;align=left;verticalAlign=top;spacingLeft=4;spacingRight=4;overflow=hidden;rotatable=0;points=[[0,0.5],[1,0.5]];portConstraint=eastwest;" vertex="1" parent="eyUBqQHgR1UuD9WIrV36-41">
          <mxGeometry y="26" width="140" height="26" as="geometry" />
        </mxCell>
        <mxCell id="eyUBqQHgR1UuD9WIrV36-45" value="C_Oil" style="swimlane;fontStyle=1;align=center;verticalAlign=top;childLayout=stackLayout;horizontal=1;startSize=26;horizontalStack=0;resizeParent=1;resizeParentMax=0;resizeLast=0;collapsible=1;marginBottom=0;fillColor=#6a00ff;strokeColor=#3700CC;fontColor=#ffffff;" vertex="1" parent="1">
          <mxGeometry x="-170" y="280" width="160" height="60" as="geometry" />
        </mxCell>
        <mxCell id="eyUBqQHgR1UuD9WIrV36-47" value="" style="line;strokeWidth=1;fillColor=none;align=left;verticalAlign=middle;spacingTop=-1;spacingLeft=3;spacingRight=3;rotatable=0;labelPosition=right;points=[];portConstraint=eastwest;" vertex="1" parent="eyUBqQHgR1UuD9WIrV36-45">
          <mxGeometry y="26" width="160" height="8" as="geometry" />
        </mxCell>
        <mxCell id="eyUBqQHgR1UuD9WIrV36-48" value="+ pour():void" style="text;strokeColor=#9673a6;fillColor=#e1d5e7;align=left;verticalAlign=top;spacingLeft=4;spacingRight=4;overflow=hidden;rotatable=0;points=[[0,0.5],[1,0.5]];portConstraint=eastwest;" vertex="1" parent="eyUBqQHgR1UuD9WIrV36-45">
          <mxGeometry y="34" width="160" height="26" as="geometry" />
        </mxCell>
        <mxCell id="eyUBqQHgR1UuD9WIrV36-49" value="C_Salt" style="swimlane;fontStyle=1;align=center;verticalAlign=top;childLayout=stackLayout;horizontal=1;startSize=26;horizontalStack=0;resizeParent=1;resizeParentMax=0;resizeLast=0;collapsible=1;marginBottom=0;fillColor=#6a00ff;strokeColor=#3700CC;fontColor=#ffffff;" vertex="1" parent="1">
          <mxGeometry x="-180" y="-60" width="160" height="60" as="geometry" />
        </mxCell>
        <mxCell id="eyUBqQHgR1UuD9WIrV36-50" value="" style="line;strokeWidth=1;fillColor=none;align=left;verticalAlign=middle;spacingTop=-1;spacingLeft=3;spacingRight=3;rotatable=0;labelPosition=right;points=[];portConstraint=eastwest;" vertex="1" parent="eyUBqQHgR1UuD9WIrV36-49">
          <mxGeometry y="26" width="160" height="8" as="geometry" />
        </mxCell>
        <mxCell id="eyUBqQHgR1UuD9WIrV36-51" value="+ salt():void" style="text;strokeColor=#9673a6;fillColor=#e1d5e7;align=left;verticalAlign=top;spacingLeft=4;spacingRight=4;overflow=hidden;rotatable=0;points=[[0,0.5],[1,0.5]];portConstraint=eastwest;" vertex="1" parent="eyUBqQHgR1UuD9WIrV36-49">
          <mxGeometry y="34" width="160" height="26" as="geometry" />
        </mxCell>
        <mxCell id="eyUBqQHgR1UuD9WIrV36-52" value="C_Egg" style="swimlane;fontStyle=1;align=center;verticalAlign=top;childLayout=stackLayout;horizontal=1;startSize=26;horizontalStack=0;resizeParent=1;resizeParentMax=0;resizeLast=0;collapsible=1;marginBottom=0;fillColor=#6a00ff;strokeColor=#3700CC;fontColor=#ffffff;" vertex="1" parent="1">
          <mxGeometry x="-460" y="106" width="160" height="60" as="geometry" />
        </mxCell>
        <mxCell id="eyUBqQHgR1UuD9WIrV36-53" value="" style="line;strokeWidth=1;fillColor=none;align=left;verticalAlign=middle;spacingTop=-1;spacingLeft=3;spacingRight=3;rotatable=0;labelPosition=right;points=[];portConstraint=eastwest;" vertex="1" parent="eyUBqQHgR1UuD9WIrV36-52">
          <mxGeometry y="26" width="160" height="8" as="geometry" />
        </mxCell>
        <mxCell id="eyUBqQHgR1UuD9WIrV36-54" value="+ break():void" style="text;strokeColor=#9673a6;fillColor=#e1d5e7;align=left;verticalAlign=top;spacingLeft=4;spacingRight=4;overflow=hidden;rotatable=0;points=[[0,0.5],[1,0.5]];portConstraint=eastwest;" vertex="1" parent="eyUBqQHgR1UuD9WIrV36-52">
          <mxGeometry y="34" width="160" height="26" as="geometry" />
        </mxCell>
        <mxCell id="eyUBqQHgR1UuD9WIrV36-55" value="Extends" style="endArrow=block;endSize=16;endFill=0;html=1;entryX=0.563;entryY=-0.017;entryDx=0;entryDy=0;entryPerimeter=0;" edge="1" parent="1" target="eyUBqQHgR1UuD9WIrV36-45">
          <mxGeometry width="160" relative="1" as="geometry">
            <mxPoint x="-80" y="166" as="sourcePoint" />
            <mxPoint x="80" y="166" as="targetPoint" />
          </mxGeometry>
        </mxCell>
        <mxCell id="eyUBqQHgR1UuD9WIrV36-57" value="Extends" style="endArrow=block;endSize=16;endFill=0;html=1;entryX=0.994;entryY=0.038;entryDx=0;entryDy=0;entryPerimeter=0;" edge="1" parent="1" target="eyUBqQHgR1UuD9WIrV36-54">
          <mxGeometry width="160" relative="1" as="geometry">
            <mxPoint x="-150" y="142" as="sourcePoint" />
            <mxPoint x="-149.92000000000007" y="254.98000000000002" as="targetPoint" />
          </mxGeometry>
        </mxCell>
        <mxCell id="eyUBqQHgR1UuD9WIrV36-58" value="C_Plate" style="swimlane;fontStyle=1;align=center;verticalAlign=top;childLayout=stackLayout;horizontal=1;startSize=26;horizontalStack=0;resizeParent=1;resizeParentMax=0;resizeLast=0;collapsible=1;marginBottom=0;fillColor=#1ba1e2;strokeColor=#006EAF;fontColor=#ffffff;" vertex="1" parent="1">
          <mxGeometry x="670" y="40" width="160" height="216" as="geometry" />
        </mxCell>
        <mxCell id="eyUBqQHgR1UuD9WIrV36-59" value="- _work:bool" style="text;strokeColor=#23445d;fillColor=#bac8d3;align=left;verticalAlign=top;spacingLeft=4;spacingRight=4;overflow=hidden;rotatable=0;points=[[0,0.5],[1,0.5]];portConstraint=eastwest;" vertex="1" parent="eyUBqQHgR1UuD9WIrV36-58">
          <mxGeometry y="26" width="160" height="26" as="geometry" />
        </mxCell>
        <mxCell id="eyUBqQHgR1UuD9WIrV36-62" value="- _object:C_Pan" style="text;strokeColor=#23445d;fillColor=#bac8d3;align=left;verticalAlign=top;spacingLeft=4;spacingRight=4;overflow=hidden;rotatable=0;points=[[0,0.5],[1,0.5]];portConstraint=eastwest;" vertex="1" parent="eyUBqQHgR1UuD9WIrV36-58">
          <mxGeometry y="52" width="160" height="26" as="geometry" />
        </mxCell>
        <mxCell id="eyUBqQHgR1UuD9WIrV36-60" value="" style="line;strokeWidth=1;fillColor=none;align=left;verticalAlign=middle;spacingTop=-1;spacingLeft=3;spacingRight=3;rotatable=0;labelPosition=right;points=[];portConstraint=eastwest;" vertex="1" parent="eyUBqQHgR1UuD9WIrV36-58">
          <mxGeometry y="78" width="160" height="8" as="geometry" />
        </mxCell>
        <mxCell id="eyUBqQHgR1UuD9WIrV36-61" value="+ plate(C_Plate&amp; )" style="text;strokeColor=#6c8ebf;fillColor=#dae8fc;align=left;verticalAlign=top;spacingLeft=4;spacingRight=4;overflow=hidden;rotatable=0;points=[[0,0.5],[1,0.5]];portConstraint=eastwest;" vertex="1" parent="eyUBqQHgR1UuD9WIrV36-58">
          <mxGeometry y="86" width="160" height="26" as="geometry" />
        </mxCell>
        <mxCell id="eyUBqQHgR1UuD9WIrV36-63" value="+ plate()" style="text;strokeColor=#6c8ebf;fillColor=#dae8fc;align=left;verticalAlign=top;spacingLeft=4;spacingRight=4;overflow=hidden;rotatable=0;points=[[0,0.5],[1,0.5]];portConstraint=eastwest;" vertex="1" parent="eyUBqQHgR1UuD9WIrV36-58">
          <mxGeometry y="112" width="160" height="26" as="geometry" />
        </mxCell>
        <mxCell id="eyUBqQHgR1UuD9WIrV36-65" value="+ isWork():bool" style="text;strokeColor=#6c8ebf;fillColor=#dae8fc;align=left;verticalAlign=top;spacingLeft=4;spacingRight=4;overflow=hidden;rotatable=0;points=[[0,0.5],[1,0.5]];portConstraint=eastwest;" vertex="1" parent="eyUBqQHgR1UuD9WIrV36-58">
          <mxGeometry y="138" width="160" height="26" as="geometry" />
        </mxCell>
        <mxCell id="eyUBqQHgR1UuD9WIrV36-64" value="+ release():void" style="text;strokeColor=#6c8ebf;fillColor=#dae8fc;align=left;verticalAlign=top;spacingLeft=4;spacingRight=4;overflow=hidden;rotatable=0;points=[[0,0.5],[1,0.5]];portConstraint=eastwest;" vertex="1" parent="eyUBqQHgR1UuD9WIrV36-58">
          <mxGeometry y="164" width="160" height="26" as="geometry" />
        </mxCell>
        <mxCell id="eyUBqQHgR1UuD9WIrV36-67" value="+ put(C_Pan&amp;)" style="text;strokeColor=#6c8ebf;fillColor=#dae8fc;align=left;verticalAlign=top;spacingLeft=4;spacingRight=4;overflow=hidden;rotatable=0;points=[[0,0.5],[1,0.5]];portConstraint=eastwest;" vertex="1" parent="eyUBqQHgR1UuD9WIrV36-58">
          <mxGeometry y="190" width="160" height="26" as="geometry" />
        </mxCell>
      </root>
    </mxGraphModel>
  </diagram>
</mxfile>
